PathFileType	4	(X/Y/Z)	walk-thru1-5-TP.trc
DataRate	CameraRate	NumFrames	NumMarkers	Units	OrigDataRate	OrigDataStartFrame	OrigNumFrames
120.00	120.00	       4	60	mm	120.00	312	       498
Frame#	Time	Top.Head			Front.Head			Rear.Head			Jaw			C7			R.Clavicle			L.Clavicle			R.Shoulder			L.Shoulder			R.Scapula			L.Scapula			R.Scap.Inf			R.Biceps.Lateral			R.Elbow			R.Elbow.Medial			R.Forearm			R.Ulna			R.Radius			R.Wrist			R.Thumb.M1			R.Thumb.M2			R.Thumb.M3			R.Finger3.M1			R.Finger3.M2			R.Finger3.M3			L.Biceps.Lateral			L.Elbow			L.Elbow.Medial			L.Forearm			L.Ulna			L.Radius			L.Wrist			L.Thumb.M1			L.Thumb.M2			L.Thumb.M3			L.Finger3.M1			L.Finger3.M2			L.Finger3.M3			V.Sacral			R.ASIS			L.ASIS			R.Thigh			R.Thigh.Front			R.Knee			R.Knee.Medial			R.Shank			R.Ankle			R.Ankle.Medial			R.Heel			R.Toe			R.MedFoot			L.Thigh			L.Knee			L.Knee.Medial			L.Shank			L.Ankle			L.Ankle.Medial			L.Heel			L.Toe			L.MedFoot			V_mid_ASIS			V_R_Knee_JC			V_L_Knee_JC			V_R_Elbow_JC			V_L_Elbow_JC			V_R_Ankle_JC			V_L_Ankle_JC			V_R_Wrist_JC			V_L_Wrist_JC			V_R_ScaTrpz_1stMC_JC			V_R_1stMC_1stPP_JC			V_R_1stPP_1stDP_JC			V_R_LunCap_3rdMC_JC			V_R_3rdMC_3rdPP_JC			V_R_3rdPP_3rdMP_JC			V_R_3rdMP_3rdDP_JC			V_L_ScaTrpz_1stMC_JC			V_L_1stMC_1stPP_JC			V_L_1stPP_1stDP_JC			V_L_LunCap_3rdMC_JC			V_L_3rdMC_3rdPP_JC			V_L_3rdPP_3rdMP_JC			V_L_3rdMP_3rdPP_JC			V_ROOT_JC			V_R_Hip_JC			V_L_Hip_JC			V_R_GlenHum_JC			V_L_GlenHum_JC			V_ForeHead_Ctr			V_Vertex			V_Sagit_Lambdoid_Suture			V_R_FrontoTemp			V_L_FrontoTemporal			V_R_ParietalOccip			V_L_ParietalOcciptal			V_R_Temporal			V_L_Temporal			V_mid_FrontRearHead			V_mid_RLGlenHumCtrs			V_C7_vert			V_C1_vert			V_Mid_Hip			
		X1	Y1	Z1	X2	Y2	Z2	X3	Y3	Z3	X4	Y4	Z4	X5	Y5	Z5	X6	Y6	Z6	X7	Y7	Z7	X8	Y8	Z8	X9	Y9	Z9	X10	Y10	Z10	X11	Y11	Z11	X12	Y12	Z12	X13	Y13	Z13	X14	Y14	Z14	X15	Y15	Z15	X16	Y16	Z16	X17	Y17	Z17	X18	Y18	Z18	X19	Y19	Z19	X20	Y20	Z20	X21	Y21	Z21	X22	Y22	Z22	X23	Y23	Z23	X24	Y24	Z24	X25	Y25	Z25	X26	Y26	Z26	X27	Y27	Z27	X28	Y28	Z28	X29	Y29	Z29	X30	Y30	Z30	X31	Y31	Z31	X32	Y32	Z32	X33	Y33	Z33	X34	Y34	Z34	X35	Y35	Z35	X36	Y36	Z36	X37	Y37	Z37	X38	Y38	Z38	X39	Y39	Z39	X40	Y40	Z40	X41	Y41	Z41	X42	Y42	Z42	X43	Y43	Z43	X44	Y44	Z44	X45	Y45	Z45	X46	Y46	Z46	X47	Y47	Z47	X48	Y48	Z48	X49	Y49	Z49	X50	Y50	Z50	X51	Y51	Z51	X52	Y52	Z52	X53	Y53	Z53	X54	Y54	Z54	X55	Y55	Z55	X56	Y56	Z56	X57	Y57	Z57	X58	Y58	Z58	X59	Y59	Z59	X60	Y60	Z60	

312	2.592	-654.33484	30.92897	1763.75195	-739.93878	44.02993	1632.13660	-515.38812	28.37118	1705.84229	-628.75958	44.70555	1468.25806	-409.18146	49.77338	1580.66443	-511.18469	159.98517	1498.41272	-498.98303	-85.08913	1486.62390	-468.11810	268.11319	1493.03711	-438.57098	-183.36478	1489.14612	-346.80328	149.78278	1491.77356	-328.95392	-39.73202	1487.50122	-315.53824	156.77847	1401.36304	-437.63449	309.47803	1356.36243	-383.26089	352.61557	1173.92761	-374.65640	254.95685	1158.43115	-486.46255	338.09793	1116.50342	-441.77490	357.57553	977.91669	-556.14233	336.89502	957.89099	-564.22986	384.37408	934.00439	-579.42999	333.32178	911.96429	-582.67450	311.40860	862.16962	-580.32776	314.73328	811.18860	-589.61298	406.24933	856.13934	-552.62592	371.86322	790.47229	-527.91010	325.25333	828.74933	-360.55890	-198.97639	1352.06567	-275.46942	-194.30916	1191.80676	-280.43109	-98.74682	1171.17053	-345.23831	-207.98367	1099.00720	-267.74835	-218.47862	1004.24744	-356.90149	-216.80482	935.04279	-322.75333	-251.49864	904.54419	-372.90555	-220.09970	876.64136	-389.05771	-194.50990	830.73572	-389.99036	-191.80959	780.53076	-331.21048	-261.22412	801.80316	-330.80151	-225.77892	745.32587	-337.20560	-168.15256	749.98242	-278.14966	52.06694	1129.92493	-476.40012	232.57515	1061.82593	-460.00320	-120.04892	1076.69055	-435.43463	219.78645	682.30646	-489.91483	126.57824	577.73914	-443.45029	189.62167	521.91162	-420.68048	82.01916	520.50897	-430.96628	148.81070	305.68362	-317.78964	184.03232	84.63052	-327.49829	80.27389	105.26646	-251.41707	140.25443	49.67988	-485.83823	145.47603	40.01062	-422.19098	106.07537	77.94928	-519.39917	-134.70306	700.05725	-556.76794	-122.91479	554.87012	-558.65558	-13.48049	532.35297	-540.55151	-81.31163	344.32108	-404.06937	-97.44730	117.72446	-462.17148	-9.29855	137.81107	-366.32407	-24.59280	86.47332	-571.98285	-98.05840	61.18257	-525.77081	-54.27753	105.07355																																																																																																																															
313	2.600	-659.47443	29.97243	1763.25183	-745.56238	43.37851	1631.32520	-519.67047	29.03003	1705.81860	-634.22272	44.36069	1467.48706	-414.18576	50.23564	1580.94946	-517.23474	159.75983	1497.69458	-503.97522	-85.03459	1486.58228	-474.72906	268.10730	1492.24548	-444.39853	-183.87468	1488.70972	-351.84766	150.64824	1491.56836	-333.75870	-39.57342	1487.28638	-321.56104	156.52385	1401.54504	-443.48236	309.13037	1355.56824	-390.06830	353.06433	1173.81897	-386.61905	255.56607	1158.25610	-492.32260	339.21948	1116.94312	-448.18622	357.91577	978.22595	-561.30151	336.88052	957.86084	-571.76105	383.74771	933.41449	-585.59619	332.92780	912.98517	-586.99518	307.23410	864.37115	-583.67444	309.41138	812.03711	-595.13666	403.26578	853.58923	-556.53906	366.69882	790.94843	-532.42584	319.04535	829.51282	-365.92148	-199.71613	1351.94226	-280.65097	-195.09120	1191.28162	-284.98923	-98.43207	1171.52759	-350.37439	-208.92278	1098.57532	-271.76547	-217.26950	1004.15222	-360.97223	-217.37018	934.83154	-327.33133	-251.79482	903.59424	-377.07022	-219.32831	876.30597	-393.50204	-194.76530	830.14246	-392.76935	-191.75728	779.65057	-335.22000	-260.27011	801.57361	-334.88184	-226.21042	745.07526	-340.33249	-167.18765	748.58539	-283.31961	51.63761	1129.00708	-481.80197	232.61769	1061.08105	-464.86533	-120.33217	1076.02588	-439.12579	220.51064	681.73010	-494.00562	126.15162	576.47137	-445.33936	189.29156	521.19574	-423.59750	80.42843	520.29993	-431.14960	148.83424	304.33804	-318.44308	183.78764	84.88460	-327.49829	80.27389	105.26646	-251.37672	140.28786	49.88132	-486.00949	145.17329	39.73843	-422.23697	105.93073	78.02589	-522.86401	-135.46136	699.00281	-560.63098	-122.43517	554.38318	-561.86487	-13.82590	531.81396	-551.04242	-81.36139	343.64709	-423.78299	-98.12351	111.84706	-480.51642	-10.63443	134.22832	-387.41559	-25.73964	79.98218	-593.70331	-99.87672	61.70438	-546.23065	-55.50910	104.48531																																																																																																																															
314	2.608	-665.56506	29.43283	1762.47754	-750.62640	43.23069	1630.64502	-524.72888	26.83145	1705.25525	-639.06909	43.26797	1466.44568	-419.35031	48.38229	1580.43665	-522.28461	158.25383	1497.29492	-509.00034	-86.07823	1485.57910	-480.68869	267.67419	1492.00854	-448.60089	-184.05396	1488.40332	-356.66492	149.71843	1491.40735	-340.23602	-40.26015	1486.92310	-326.84692	157.30443	1401.09753	-449.22650	309.14041	1354.76477	-397.26181	353.22958	1172.87683	-388.29077	257.26083	1159.41565	-498.63077	339.50922	1117.86560	-454.71805	359.09256	977.21088	-569.36133	337.39404	959.21136	-578.29230	383.34000	932.58716	-591.77557	332.03656	913.91528	-592.63947	304.45621	866.43994	-587.31665	304.95496	814.62103	-602.01776	399.22415	851.93811	-563.53394	359.61456	790.88239	-534.44135	318.01459	829.75354	-371.41098	-198.93976	1351.28857	-285.14545	-195.93472	1190.83740	-290.86383	-99.17477	1171.00818	-354.06467	-208.65134	1098.53687	-276.07333	-218.37294	1004.36279	-365.20459	-217.23283	934.22412	-331.38107	-251.53922	903.38733	-382.21777	-219.09041	876.03247	-396.96216	-194.59975	829.99524	-397.06500	-191.64583	779.04309	-339.11752	-260.57803	800.75812	-338.47385	-226.22630	744.60236	-344.99805	-166.71947	747.92175	-288.47961	51.25488	1128.54370	-487.98151	232.31900	1060.41968	-469.44724	-120.12562	1075.53259	-443.18585	219.46558	681.25140	-495.09140	126.24881	575.72644	-448.56476	189.42181	520.69580	-426.22293	81.56334	519.55621	-433.22711	149.17509	304.06754	-318.60962	183.49506	84.85063	-325.60986	78.24229	105.81529	-251.37672	140.28786	49.88132	-486.00684	145.18393	39.61078	-422.33643	105.96688	78.00529	-526.57587	-136.04126	698.40460	-565.02814	-122.66760	553.98724	-567.52875	-11.39736	531.56824	-562.00000	-81.79678	343.79800	-443.55511	-100.13306	107.38626	-499.98114	-11.90491	131.50668	-408.27194	-27.31958	72.80763	-614.97290	-101.53548	63.60776	-566.16278	-57.39794	104.44347																																																																																																																															
315	2.617	-670.29163	29.20285	1761.06250	-755.87976	42.17393	1629.41418	-531.03107	28.52941	1702.77734	-645.19708	42.83350	1465.79333	-425.92340	47.25807	1579.52246	-527.89026	157.52888	1496.77673	-514.62866	-85.94800	1484.95813	-486.65845	267.46484	1492.37012	-454.84921	-185.57893	1487.93140	-363.15234	150.07149	1490.67517	-344.50946	-39.80169	1486.35364	-332.37842	156.02223	1400.83875	-455.33377	308.38968	1354.32190	-403.00208	354.26480	1172.28162	-394.88843	257.55826	1156.85852	-503.97522	341.73593	1117.10022	-461.08362	359.97012	976.81842	-574.97070	337.04413	960.53638	-584.81708	383.29385	932.69922	-596.43048	330.13358	915.65942	-598.33093	300.57339	869.75153	-591.12085	298.62415	817.44226	-608.16095	394.02570	849.86542	-568.58179	352.30362	791.50378	-539.31830	310.49216	830.90515	-376.14325	-199.20786	1350.26807	-290.24707	-196.82251	1190.16064	-295.71170	-99.52418	1170.00049	-359.98306	-208.14265	1097.43274	-281.46710	-216.79871	1003.92340	-370.63315	-216.77931	933.36517	-336.26443	-250.50201	902.87128	-385.94901	-219.31746	875.36682	-401.53241	-194.41127	828.98975	-401.41080	-190.31847	778.68256	-343.04257	-261.21744	800.40424	-343.07205	-224.97723	744.10907	-348.06186	-166.68016	748.40460	-294.29413	51.10186	1127.96643	-491.69339	231.68526	1060.29150	-474.65848	-120.35220	1074.60168	-446.54706	218.70000	680.83069	-499.54080	127.14693	574.86432	-452.19376	189.32324	520.63409	-429.26712	80.99924	519.60016	-431.78677	148.67886	303.50040	-319.21277	183.38412	85.07703	-327.19547	79.09393	104.90579	-251.44284	140.25145	49.95568	-486.06787	145.63057	39.96559	-422.76016	106.42307	77.62610	-530.86072	-135.74924	697.04401	-569.01367	-121.90557	553.65381	-569.39954	-13.12569	530.11072	-574.00549	-82.74657	343.83701	-463.75043	-101.48672	103.27732	-519.05524	-14.27272	129.02478	-429.50479	-29.55399	68.55761	-636.29443	-102.32488	65.09449	-586.17120	-59.21669	103.99033																																																																																																																															
